<svg width="24" height="24" viewBox="0 0 24 24" fill="none" xmlns="http://www.w3.org/2000/svg">
<path d="M12 23.25C18.2132 23.25 23.25 18.2132 23.25 12C23.25 5.7868 18.2132 0.75 12 0.75C5.7868 0.75 0.75 5.7868 0.75 12C0.75 18.2132 5.7868 23.25 12 23.25Z" fill="#00FFA4" fill-opacity="0.05" stroke="#009962" stroke-opacity="0.2"/>
<path d="M12 23.25C18.2132 23.25 23.25 18.2132 23.25 12C23.25 5.7868 18.2132 0.75 12 0.75C5.7868 0.75 0.75 5.7868 0.75 12C0.75 18.2132 5.7868 23.25 12 23.25Z" stroke="#00FFA4" stroke-opacity="0.2"/>
<path d="M9 7.75H15V10.75L13 12.75L15 14.75V17.75H9V14.75L11 12.75L9 10.75V7.75ZM14 15L12 13L10 15V16.75H14V15ZM12 12.5L14 10.5V8.75H10V10.5L12 12.5ZM11 9.75H13V10.125L12 11.125L11 10.125V9.75Z" fill="#00FFA4"/>
<path d="M24 12C24 14.2131 23.388 16.383 22.2317 18.27C21.0754 20.1569 19.4197 21.6874 17.4479 22.6921C15.476 23.6968 13.2647 24.1366 11.0585 23.963C8.85225 23.7894 6.73699 23.009 4.94658 21.7082C3.15617 20.4074 1.76035 18.6368 0.913446 16.5922C0.0665413 14.5476 -0.19846 12.3086 0.14774 10.1228C0.49394 7.93697 1.43786 5.88945 2.87513 4.20662C4.3124 2.52379 6.18704 1.2712 8.29179 0.587322L8.66262 1.72859C6.76834 2.34408 5.08116 3.47142 3.78762 4.98596C2.49407 6.50051 1.64455 8.34327 1.33297 10.3105C1.02139 12.2777 1.25989 14.2928 2.0221 16.133C2.78432 17.9731 4.04055 19.5667 5.65192 20.7374C7.26329 21.9081 9.16702 22.6104 11.1526 22.7667C13.1383 22.923 15.1284 22.5271 16.9031 21.6229C18.6778 20.7186 20.1678 19.3412 21.2085 17.643C22.2492 15.9447 22.8 13.9918 22.8 12H24Z" fill="#00FFA4"/>
</svg>
