<svg width="26" height="26" viewBox="0 0 26 26" fill="none" xmlns="http://www.w3.org/2000/svg">
<path d="M13 25C19.6274 25 25 19.6274 25 13C25 6.37258 19.6274 1 13 1C6.37258 1 1 6.37258 1 13C1 19.6274 6.37258 25 13 25Z" fill="#09E583" fill-opacity="0.05" stroke="#09E583" stroke-opacity="0.2" stroke-width="0.8"/>
<path d="M4.88956 13.9436L5.81756 12.9996L9.54556 16.7116L8.60156 17.6556L4.88956 13.9436ZM19.4176 8.71161L20.3776 9.65561L12.3776 17.6556L8.63356 13.9436L9.60956 12.9996L12.3776 15.7836L19.4176 8.71161ZM16.6016 9.65561L12.3776 13.9116L11.4496 12.9676L15.6576 8.71161L16.6016 9.65561Z" fill="#09E583"/>
</svg>
