<svg width="24" height="24" viewBox="0 0 24 24" fill="none" xmlns="http://www.w3.org/2000/svg">
<path fill-rule="evenodd" clip-rule="evenodd" d="M7.35002 10.0621L11.9987 5.41203L16.6499 10.0645L19.3548 7.35868L11.9987 0L4.64516 7.35628L7.35002 10.0621ZM0 12.0001L2.70977 9.29032L5.41935 11.9999L2.70961 14.7097L0 12.0001ZM12.0001 18.5879L7.35309 13.9378L4.64516 16.64L4.64899 16.6439L12.0001 24L19.3535 16.6414L19.3548 16.6399L16.6494 13.9355L12.0001 18.5879ZM18.5806 12.0001L21.2904 9.29032L24 11.9999L21.2902 14.7097L18.5806 12.0001ZM14.7084 11.9986H14.7072L14.7097 11.9999L14.7084 12.0014L12 14.7097L9.2941 12.0038L9.29032 11.9999L9.2941 11.9962L9.76839 11.5218L9.99833 11.2918H9.99845L12 9.29032L14.7084 11.9986Z" fill="#2042A8"/>
</svg>
