<svg width="16" height="12" viewBox="0 0 16 12" fill="none" xmlns="http://www.w3.org/2000/svg">
<path d="M13.4545 2.11364C13.4545 2.11364 11.8911 0.88977 10.0455 0.75L9.8791 1.08307C11.5475 1.49182 12.3132 2.07614 13.1136 2.79545C11.734 2.09114 10.3727 1.43182 8 1.43182C5.62727 1.43182 4.26602 2.09114 2.88636 2.79545C3.68682 2.07614 4.59773 1.42636 6.1209 1.08307L5.95455 0.75C4.01818 0.93239 2.54545 2.11364 2.54545 2.11364C2.54545 2.11364 0.79966 4.6452 0.5 9.6136C2.25909 11.6431 4.93182 11.6591 4.93182 11.6591L5.49091 10.9145C4.54182 10.5845 3.47136 9.9958 2.54545 8.9318C3.64932 9.767 5.31534 10.6364 8 10.6364C10.6847 10.6364 12.3507 9.767 13.4545 8.9318C12.529 9.9958 11.4585 10.5845 10.5091 10.9145L11.0682 11.6591C11.0682 11.6591 13.7409 11.6431 15.5 9.6136C15.2003 4.6452 13.4545 2.11364 13.4545 2.11364ZM5.78409 8.25C5.12477 8.25 4.59091 7.6398 4.59091 6.8864C4.59091 6.133 5.12477 5.5227 5.78409 5.5227C6.4434 5.5227 6.9773 6.133 6.9773 6.8864C6.9773 7.6398 6.4434 8.25 5.78409 8.25ZM10.2159 8.25C9.5566 8.25 9.0227 7.6398 9.0227 6.8864C9.0227 6.133 9.5566 5.5227 10.2159 5.5227C10.8752 5.5227 11.4091 6.133 11.4091 6.8864C11.4091 7.6398 10.8752 8.25 10.2159 8.25Z" fill="#14161E"/>
</svg>
