<svg width="12" height="12" viewBox="0 0 12 12" fill="none" xmlns="http://www.w3.org/2000/svg">
<path d="M9.75 9.75V8.25C9.75 7.836 10.086 7.5 10.5 7.5C10.914 7.5 11.25 7.836 11.25 8.25V9.75C11.25 10.5787 10.5787 11.25 9.75 11.25H2.25C1.42125 11.25 0.75 10.5787 0.75 9.75V2.25C0.75 1.42125 1.42125 0.75 2.25 0.75H3.75C4.164 0.75 4.5 1.086 4.5 1.5C4.5 1.914 4.164 2.25 3.75 2.25H2.25V9.75H9.75Z" fill="#F3F5F7"/>
<path fill-rule="evenodd" clip-rule="evenodd" d="M8.68922 2.25H6.74972C6.33572 2.25 5.99972 1.914 5.99972 1.5C5.99972 1.086 6.33572 0.75 6.74972 0.75H10.4997C10.7067 0.75 10.8942 0.834 11.03 0.96975C11.1657 1.10475 11.2497 1.29225 11.2497 1.5V5.25C11.2497 5.664 10.9137 6 10.4997 6C10.0857 6 9.74972 5.664 9.74972 5.25V3.3105L5.06747 7.99275C4.77497 8.28525 4.30022 8.28525 4.00697 7.99275C3.71447 7.70025 3.71447 7.22475 4.00697 6.93225L8.68922 2.25Z" fill="#F3F5F7"/>
</svg>
