<svg width="120" height="120" viewBox="0 0 120 120" fill="none" xmlns="http://www.w3.org/2000/svg">
<g clip-path="url(#clip0_146_42783)">
<path d="M59.9288 120C51.6726 120 43.8909 118.458 36.5836 115.374C29.2764 112.289 22.8944 108.019 17.4377 102.562C11.981 97.1056 7.71056 90.7236 4.62633 83.4164C1.54211 76.1091 0 68.3274 0 60.0712C0 51.815 1.54211 44.0332 4.62633 36.726C7.71056 29.4187 11.981 23.0368 17.4377 17.5801C22.8944 12.1234 29.2764 7.82918 36.5836 4.69751C43.8909 1.56584 51.6252 0 59.7865 0C68.1376 0 75.9905 1.56584 83.3452 4.69751C90.6999 7.82918 97.0819 12.1234 102.491 17.5801C107.9 23.0368 112.171 29.4187 115.303 36.726C118.434 44.0332 120 51.8624 120 60.2135C120 68.3749 118.434 76.1091 115.303 83.4164C112.171 90.7236 107.877 97.1056 102.42 102.562C96.9632 108.019 90.5813 112.289 83.274 115.374C75.9668 118.458 68.1851 120 59.9288 120V120Z" fill="#EB6464" fill-opacity="0.05"/>
<path d="M53.25 0.375C50.8333 0.625 48.5417 1.04167 46.375 1.625L67 22.25L72.375 16.875L62.875 7.375C69.125 7.70833 75.1458 9.1875 80.9375 11.8125C86.7292 14.4375 91.8958 17.875 96.4375 22.125C100.979 26.375 104.708 31.2917 107.625 36.875C110.542 42.4583 112.25 48.4167 112.75 54.75H120.25C119.583 47 117.542 39.7917 114.125 33.125C110.708 26.4583 106.312 20.6667 100.938 15.75C95.5625 10.8333 89.375 6.97917 82.375 4.1875C75.375 1.39583 68 0 60.25 0C58 0 55.6667 0.125 53.25 0.375Z" fill="#EB6464" fill-opacity="0.35"/>
<path d="M67.125 119.625C69.5417 119.375 71.8333 118.958 74 118.375L53.375 97.75L48 103.125L57.5 112.625C51.25 112.292 45.2292 110.812 39.4375 108.188C33.6458 105.563 28.4792 102.125 23.9375 97.875C19.3958 93.625 15.6667 88.7083 12.75 83.125C9.83333 77.5417 8.125 71.5833 7.625 65.25H0C0.75 73 2.83333 80.2083 6.25 86.875C9.66667 93.5417 14.0833 99.3333 19.5 104.25C24.9167 109.167 31.1042 113.021 38.0625 115.812C45.0208 118.604 52.4167 120 60.25 120C62.4167 120 64.7083 119.875 67.125 119.625Z" fill="#EB6464" fill-opacity="0.35"/>
<path d="M49.8577 73.5587L59.9644 63.452L70.0712 73.5587L73.4875 70.1424L63.3808 60.0356L73.4875 49.9288L70.0712 46.5125L59.9644 56.6192L49.8577 46.5125L46.4413 49.9288L56.548 60.0356L46.4413 70.1424L49.8577 73.5587ZM59.9644 90C55.8363 90 51.9454 89.2289 48.2918 87.6868C44.6382 86.1447 41.4472 84.0095 38.7189 81.2811C35.9905 78.5528 33.8553 75.3618 32.3132 71.7082C30.7711 68.0546 30 64.1637 30 60.0356C30 55.9075 30.7711 52.0166 32.3132 48.363C33.8553 44.7094 35.9905 41.5184 38.7189 38.79C41.4472 36.0617 44.6382 33.9146 48.2918 32.3488C51.9454 30.7829 55.8126 30 59.8932 30C64.0688 30 67.9834 30.7829 71.637 32.3488C75.2906 33.9146 78.4816 36.0617 81.21 38.79C83.9383 41.5184 86.0854 44.7094 87.6513 48.363C89.2171 52.0166 90 55.9312 90 60.1068C90 64.1874 89.2171 68.0546 87.6513 71.7082C86.0854 75.3618 83.9383 78.5528 81.21 81.2811C78.4816 84.0095 75.2906 86.1447 71.637 87.6868C67.9834 89.2289 64.0925 90 59.9644 90V90Z" fill="#EB6464" fill-opacity="0.35"/>
</g>
<defs>
<clipPath id="clip0_146_42783">
<rect width="120" height="120" fill="white"/>
</clipPath>
</defs>
</svg>
