<svg width="20" height="24" viewBox="0 0 20 24" fill="none" xmlns="http://www.w3.org/2000/svg">
<path d="M2.49996 24C1.98885 24 1.55551 23.8222 1.19996 23.4667C0.844404 23.1111 0.666626 22.6778 0.666626 22.1667V1.83333C0.666626 1.32222 0.844404 0.888889 1.19996 0.533333C1.55551 0.177778 1.98885 0 2.49996 0H12.9C13.1444 0 13.3833 0.0499999 13.6166 0.15C13.85 0.25 14.0555 0.377778 14.2333 0.533333L18.8 5.1C18.9555 5.27778 19.0833 5.48333 19.1833 5.71667C19.2833 5.95 19.3333 6.18889 19.3333 6.43333V22.1667C19.3333 22.6778 19.1555 23.1111 18.8 23.4667C18.4444 23.8222 18.0111 24 17.5 24H2.49996ZM1.69996 5.7V1.03333V22.9667V5.7ZM7.63329 19C7.49996 19 7.38329 18.95 7.28329 18.85C7.18329 18.75 7.13329 18.6222 7.13329 18.4667C7.13329 18.3333 7.18329 18.2167 7.28329 18.1167C7.38329 18.0167 7.49996 17.9667 7.63329 17.9667H12.7666V14.8333H7.63329C7.49996 14.8333 7.38329 14.7833 7.28329 14.6833C7.18329 14.5833 7.13329 14.4667 7.13329 14.3333V10.1667C7.13329 10.0333 7.18329 9.91667 7.28329 9.81667C7.38329 9.71667 7.49996 9.66667 7.63329 9.66667H9.93329V8.83333C9.93329 8.7 9.98329 8.58333 10.0833 8.48333C10.1833 8.38333 10.3111 8.33333 10.4666 8.33333C10.6222 8.33333 10.7444 8.38333 10.8333 8.48333C10.9222 8.58333 10.9666 8.7 10.9666 8.83333V9.66667H13.2666C13.4222 9.66667 13.55 9.71667 13.65 9.81667C13.75 9.91667 13.8 10.0333 13.8 10.1667C13.8 10.3222 13.75 10.45 13.65 10.55C13.55 10.65 13.4222 10.7 13.2666 10.7H8.16663V13.8H13.2666C13.4222 13.8 13.55 13.85 13.65 13.95C13.75 14.05 13.8 14.1778 13.8 14.3333V18.4667C13.8 18.6222 13.75 18.75 13.65 18.85C13.55 18.95 13.4222 19 13.2666 19H10.9666V19.8333C10.9666 19.9889 10.9166 20.1111 10.8166 20.2C10.7166 20.2889 10.6 20.3333 10.4666 20.3333C10.3111 20.3333 10.1833 20.2833 10.0833 20.1833C9.98329 20.0833 9.93329 19.9556 9.93329 19.8V19H7.63329ZM18.3 5.7H13.6C13.3555 5.7 13.1388 5.60556 12.95 5.41667C12.7611 5.22778 12.6666 5.01111 12.6666 4.76667V1.03333H2.49996C2.29996 1.03333 2.11663 1.11667 1.94996 1.28333C1.78329 1.45 1.69996 1.63333 1.69996 1.83333V22.1667C1.69996 22.3667 1.78329 22.55 1.94996 22.7167C2.11663 22.8833 2.29996 22.9667 2.49996 22.9667H17.5C17.7 22.9667 17.8833 22.8833 18.05 22.7167C18.2166 22.55 18.3 22.3667 18.3 22.1667V5.7Z" fill="white"/>
</svg>
