<svg width="14" height="14" viewBox="0 0 14 14" fill="none" xmlns="http://www.w3.org/2000/svg">
<path fill-rule="evenodd" clip-rule="evenodd" d="M2.77087 10.5C2.77087 10.2584 2.96675 10.0625 3.20837 10.0625H10.7917C11.0333 10.0625 11.2292 10.2584 11.2292 10.5C11.2292 10.7416 11.0333 10.9375 10.7917 10.9375H3.20837C2.96675 10.9375 2.77087 10.7416 2.77087 10.5Z" fill="white"/>
<path d="M11.6667 8.16671H2.33333C2.17862 8.16671 2.03025 8.10525 1.92085 7.99585C1.81146 7.88646 1.75 7.73808 1.75 7.58337V6.41671C1.75 6.262 1.81146 6.11362 1.92085 6.00423C2.03025 5.89483 2.17862 5.83337 2.33333 5.83337H11.6667C11.8214 5.83337 11.9698 5.89483 12.0791 6.00423C12.1885 6.11362 12.25 6.262 12.25 6.41671V7.58337C12.25 7.73808 12.1885 7.88646 12.0791 7.99585C11.9698 8.10525 11.8214 8.16671 11.6667 8.16671Z" stroke="white" stroke-width="0.875" stroke-linecap="round" stroke-linejoin="round"/>
<path fill-rule="evenodd" clip-rule="evenodd" d="M2.77087 3.5C2.77087 3.25838 2.96675 3.0625 3.20837 3.0625H10.7917C11.0333 3.0625 11.2292 3.25838 11.2292 3.5C11.2292 3.74162 11.0333 3.9375 10.7917 3.9375H3.20837C2.96675 3.9375 2.77087 3.74162 2.77087 3.5Z" fill="white"/>
</svg>
