<svg width="32" height="32" viewBox="0 0 32 32" fill="none" xmlns="http://www.w3.org/2000/svg">
<circle cx="18" cy="16" r="12" fill="#687FE3"/>
<path opacity="0.6" d="M17.9973 18.776L22.5 16.0764L17.9973 14.0037L13.5 16.0764L17.9973 18.776Z" fill="#E9F0FF"/>
<path opacity="0.45" d="M17.9973 14.0036V8.5L13.5 16.0763L17.9973 18.7759V14.0036Z" fill="#E9F0FF"/>
<path opacity="0.8" d="M17.9951 18.7759L22.4978 16.0763L17.9951 8.5V14.0036V18.7759Z" fill="#E9F0FF"/>
<path opacity="0.45" d="M17.9973 19.6386L13.5 16.9446L17.9973 23.3773V19.6386Z" fill="#E9F0FF"/>
<path opacity="0.8" d="M22.4978 16.9446L17.9951 19.6386V23.3773L22.4978 16.9446Z" fill="#E9F0FF"/>
<g filter="url(#filter0_d_349_33048)">
<circle cx="18" cy="16" r="12" fill="#878D96"/>
<path d="M19.1247 9.97168C18.8263 9.97168 18.5402 10.0896 18.3292 10.2996C18.1182 10.5096 17.9997 10.7944 17.9997 11.0914C17.9997 11.3883 18.1182 11.6731 18.3292 11.8831C18.5402 12.0931 18.8263 12.2111 19.1247 12.2111C19.423 12.2111 19.7092 12.0931 19.9202 11.8831C20.1311 11.6731 20.2497 11.3883 20.2497 11.0914C20.2497 10.7944 20.1311 10.5096 19.9202 10.2996C19.7092 10.0896 19.423 9.97168 19.1247 9.97168ZM18.8547 13.5323C17.9622 13.607 15.5247 15.5403 15.5247 15.5403C15.3747 15.6523 15.4197 15.6448 15.5397 15.8538C15.6597 16.0554 15.6447 16.0703 15.7872 15.9733C15.9372 15.8762 16.1847 15.7195 16.5972 15.4657C18.1872 14.4505 16.8522 16.7944 16.1697 20.7432C15.8997 22.699 17.6697 21.6912 18.1272 21.3926C18.5772 21.1015 19.7847 20.2729 19.9047 20.1908C20.0697 20.0789 19.9497 19.9893 19.8222 19.8027C19.7322 19.6758 19.6422 19.7653 19.6422 19.7653C19.1547 20.0863 18.2622 20.7581 18.1422 20.3327C17.9997 19.9072 18.9147 16.9885 19.4172 14.9805C19.4997 14.5027 19.7247 13.4577 18.8547 13.5323Z" fill="#DDE1E6"/>
</g>
<defs>
<filter id="filter0_d_349_33048" x="0" y="0" width="32" height="32" filterUnits="userSpaceOnUse" color-interpolation-filters="sRGB">
<feFlood flood-opacity="0" result="BackgroundImageFix"/>
<feColorMatrix in="SourceAlpha" type="matrix" values="0 0 0 0 0 0 0 0 0 0 0 0 0 0 0 0 0 0 127 0" result="hardAlpha"/>
<feOffset dx="-2"/>
<feGaussianBlur stdDeviation="2"/>
<feComposite in2="hardAlpha" operator="out"/>
<feColorMatrix type="matrix" values="0 0 0 0 0 0 0 0 0 0 0 0 0 0 0 0 0 0 0.1 0"/>
<feBlend mode="normal" in2="BackgroundImageFix" result="effect1_dropShadow_349_33048"/>
<feBlend mode="normal" in="SourceGraphic" in2="effect1_dropShadow_349_33048" result="shape"/>
</filter>
</defs>
</svg>
