<svg width="6" height="13" viewBox="0 0 6 13" fill="none" xmlns="http://www.w3.org/2000/svg">
<path d="M4.12497 0.972168C3.8266 0.972168 3.54046 1.09014 3.32948 1.30012C3.1185 1.51011 2.99997 1.79491 2.99997 2.09187C2.99997 2.38883 3.1185 2.67363 3.32948 2.88362C3.54046 3.0936 3.8266 3.21157 4.12497 3.21157C4.42334 3.21157 4.70949 3.0936 4.92047 2.88362C5.13145 2.67363 5.24997 2.38883 5.24997 2.09187C5.24997 1.79491 5.13145 1.51011 4.92047 1.30012C4.70949 1.09014 4.42334 0.972168 4.12497 0.972168ZM3.85497 4.53282C2.96247 4.60747 0.524973 6.54082 0.524973 6.54082C0.374973 6.65279 0.419973 6.64532 0.539973 6.85433C0.659973 7.05588 0.644973 7.07081 0.787473 6.97377C0.937473 6.87673 1.18497 6.71997 1.59747 6.46617C3.18747 5.45097 1.85247 7.79488 1.16997 11.7437C0.899973 13.6994 2.66997 12.6917 3.12747 12.3931C3.57747 12.102 4.78497 11.2734 4.90497 11.1913C5.06997 11.0793 4.94997 10.9898 4.82247 10.8031C4.73247 10.6762 4.64247 10.7658 4.64247 10.7658C4.15497 11.0868 3.26247 11.7586 3.14247 11.3331C2.99997 10.9077 3.91497 7.98897 4.41747 5.98097C4.49997 5.50323 4.72497 4.45817 3.85497 4.53282Z" fill="#DDE1E6"/>
</svg>
