<svg width="14" height="14" viewBox="0 0 14 14" fill="none" xmlns="http://www.w3.org/2000/svg">
<path d="M12.4444 0C12.857 0 13.2527 0.163888 13.5444 0.455612C13.8361 0.747335 14 1.143 14 1.55556V12.4444C14 12.857 13.8361 13.2527 13.5444 13.5444C13.2527 13.8361 12.857 14 12.4444 14H1.55556C1.143 14 0.747335 13.8361 0.455612 13.5444C0.163888 13.2527 0 12.857 0 12.4444V1.55556C0 1.143 0.163888 0.747335 0.455612 0.455612C0.747335 0.163888 1.143 0 1.55556 0H12.4444ZM12.0556 12.0556V7.93333C12.0556 7.26086 11.7884 6.61593 11.3129 6.14042C10.8374 5.66492 10.1925 5.39778 9.52 5.39778C8.85889 5.39778 8.08889 5.80222 7.71556 6.40889V5.54556H5.54556V12.0556H7.71556V8.22111C7.71556 7.62222 8.19778 7.13222 8.79667 7.13222C9.08546 7.13222 9.36242 7.24694 9.56663 7.45115C9.77083 7.65536 9.88556 7.93232 9.88556 8.22111V12.0556H12.0556ZM3.01778 4.32444C3.36433 4.32444 3.69668 4.18678 3.94173 3.94173C4.18678 3.69668 4.32444 3.36433 4.32444 3.01778C4.32444 2.29444 3.74111 1.70333 3.01778 1.70333C2.66917 1.70333 2.33483 1.84182 2.08833 2.08833C1.84182 2.33483 1.70333 2.66917 1.70333 3.01778C1.70333 3.74111 2.29444 4.32444 3.01778 4.32444ZM4.09889 12.0556V5.54556H1.94444V12.0556H4.09889Z" fill="#14161E"/>
</svg>
