<svg width="22" height="21" viewBox="0 0 22 21" fill="none" xmlns="http://www.w3.org/2000/svg">
<path d="M20.552 1L12.5146 6.96285L14.0073 3.44491L20.552 1Z" fill="#E17726" stroke="#E17726" stroke-width="0.0794834" stroke-linecap="round" stroke-linejoin="round"/>
<path d="M2.0166 1L9.98084 7.01928L8.56127 3.44491L2.0166 1Z" fill="#E27625" stroke="#E27625" stroke-width="0.0794834" stroke-linecap="round" stroke-linejoin="round"/>
<path d="M17.6625 14.823L15.5244 18.0993L20.0995 19.3575L21.407 14.8953L17.6625 14.823Z" fill="#E27625" stroke="#E27625" stroke-width="0.0794834" stroke-linecap="round" stroke-linejoin="round"/>
<path d="M1.16895 14.8953L2.4685 19.3575L7.04356 18.0993L4.91341 14.823L1.16895 14.8953Z" fill="#E27625" stroke="#E27625" stroke-width="0.0794834" stroke-linecap="round" stroke-linejoin="round"/>
<path d="M6.79347 9.28699L5.51855 11.2161L10.0539 11.4179L9.90048 6.53528L6.79347 9.28699Z" fill="#E27625" stroke="#E27625" stroke-width="0.0794834" stroke-linecap="round" stroke-linejoin="round"/>
<path d="M15.7751 9.28691L12.6196 6.47876L12.5146 11.4179L17.05 11.216L15.7751 9.28691Z" fill="#E27625" stroke="#E27625" stroke-width="0.0794834" stroke-linecap="round" stroke-linejoin="round"/>
<path d="M7.04395 18.0992L9.77977 16.7671L7.42308 14.9279L7.04395 18.0992Z" fill="#E27625" stroke="#E27625" stroke-width="0.0794834" stroke-linecap="round" stroke-linejoin="round"/>
<path d="M12.7891 16.7671L15.5249 18.0992L15.1457 14.9279L12.7891 16.7671Z" fill="#E27625" stroke="#E27625" stroke-width="0.0794834" stroke-linecap="round" stroke-linejoin="round"/>
<path d="M15.5249 18.0992L12.7891 16.7671L13.0068 18.5507L12.983 19.301L15.5249 18.0992Z" fill="#D5BFB2" stroke="#D5BFB2" stroke-width="0.0794834" stroke-linecap="round" stroke-linejoin="round"/>
<path d="M7.04395 18.0992L9.58583 19.301L9.56993 18.5507L9.77977 16.7671L7.04395 18.0992Z" fill="#D5BFB2" stroke="#D5BFB2" stroke-width="0.0794834" stroke-linecap="round" stroke-linejoin="round"/>
<path d="M9.63401 13.7491L7.3584 13.0799L8.96396 12.3455L9.63401 13.7491Z" fill="#233447" stroke="#233447" stroke-width="0.0794834" stroke-linecap="round" stroke-linejoin="round"/>
<path d="M12.9346 13.7491L13.6046 12.3455L15.2181 13.0799L12.9346 13.7491Z" fill="#233447" stroke="#233447" stroke-width="0.0794834" stroke-linecap="round" stroke-linejoin="round"/>
<path d="M7.04422 18.0993L7.43925 14.823L4.91406 14.8953L7.04422 18.0993Z" fill="#CC6228" stroke="#CC6228" stroke-width="0.0794834" stroke-linecap="round" stroke-linejoin="round"/>
<path d="M15.1299 14.823L15.5249 18.0993L17.663 14.8953L15.1299 14.823Z" fill="#CC6228" stroke="#CC6228" stroke-width="0.0794834" stroke-linecap="round" stroke-linejoin="round"/>
<path d="M17.05 11.2161L12.5146 11.418L12.9343 13.7492L13.6044 12.3455L15.2179 13.08L17.05 11.2161Z" fill="#CC6228" stroke="#CC6228" stroke-width="0.0794834" stroke-linecap="round" stroke-linejoin="round"/>
<path d="M7.3586 13.08L8.96416 12.3455L9.63421 13.7492L10.0539 11.418L5.51855 11.2161L7.3586 13.08Z" fill="#CC6228" stroke="#CC6228" stroke-width="0.0794834" stroke-linecap="round" stroke-linejoin="round"/>
<path d="M5.51855 11.2161L7.42298 14.9279L7.3586 13.08L5.51855 11.2161Z" fill="#E27525" stroke="#E27525" stroke-width="0.0794834" stroke-linecap="round" stroke-linejoin="round"/>
<path d="M15.2178 13.08L15.1455 14.9279L17.0499 11.2161L15.2178 13.08Z" fill="#E27525" stroke="#E27525" stroke-width="0.0794834" stroke-linecap="round" stroke-linejoin="round"/>
<path d="M10.0544 11.4178L9.63477 13.7491L10.1673 16.5008L10.2802 12.878L10.0544 11.4178Z" fill="#E27525" stroke="#E27525" stroke-width="0.0794834" stroke-linecap="round" stroke-linejoin="round"/>
<path d="M12.5147 11.4178L12.2969 12.87L12.4018 16.5008L12.9343 13.7491L12.5147 11.4178Z" fill="#E27525" stroke="#E27525" stroke-width="0.0794834" stroke-linecap="round" stroke-linejoin="round"/>
<path d="M12.9349 13.7491L12.4023 16.5008L12.7894 16.7671L15.1461 14.9278L15.2184 13.0798L12.9349 13.7491Z" fill="#F5841F" stroke="#F5841F" stroke-width="0.0794834" stroke-linecap="round" stroke-linejoin="round"/>
<path d="M7.3584 13.0798L7.42278 14.9278L9.77946 16.7671L10.1665 16.5008L9.63401 13.7491L7.3584 13.0798Z" fill="#F5841F" stroke="#F5841F" stroke-width="0.0794834" stroke-linecap="round" stroke-linejoin="round"/>
<path d="M12.9829 19.301L13.0068 18.5507L12.8057 18.3735H9.76307L9.56993 18.5507L9.58583 19.301L7.04395 18.0992L7.93178 18.8249L9.73923 20.076H12.8295L14.637 18.8249L15.5248 18.0992L12.9829 19.301Z" fill="#C0AC9D" stroke="#C0AC9D" stroke-width="0.0794834" stroke-linecap="round" stroke-linejoin="round"/>
<path d="M12.7894 16.7671L12.4023 16.5009H10.1672L9.78015 16.7671L9.57031 18.5507L9.76346 18.3735H12.8061L13.0072 18.5507L12.7894 16.7671Z" fill="#161616" stroke="#161616" stroke-width="0.0794834" stroke-linecap="round" stroke-linejoin="round"/>
<path d="M20.8908 7.35072L21.5688 4.05852L20.5522 1L12.7891 6.76175L15.7753 9.28694L19.995 10.5221L20.9234 9.4324L20.5196 9.14228L21.165 8.55252L20.673 8.16543L21.3184 7.67343L20.8908 7.35072Z" fill="#763E1A" stroke="#763E1A" stroke-width="0.0794834" stroke-linecap="round" stroke-linejoin="round"/>
<path d="M1 4.05852L1.68594 7.35072L1.25037 7.67343L1.89578 8.16543L1.40378 8.55252L2.04918 9.14228L1.64541 9.4324L2.57377 10.5221L6.79355 9.28694L9.77974 6.76175L2.01659 1L1 4.05852Z" fill="#763E1A" stroke="#763E1A" stroke-width="0.0794834" stroke-linecap="round" stroke-linejoin="round"/>
<path d="M19.9948 10.5222L15.775 9.28699L17.0499 11.2161L15.1455 14.9279L17.6627 14.8953H21.4072L19.9948 10.5222Z" fill="#F5841F" stroke="#F5841F" stroke-width="0.0794834" stroke-linecap="round" stroke-linejoin="round"/>
<path d="M6.79319 9.28699L2.57342 10.5222L1.16895 14.8953H4.91341L7.4227 14.9279L5.51828 11.2161L6.79319 9.28699Z" fill="#F5841F" stroke="#F5841F" stroke-width="0.0794834" stroke-linecap="round" stroke-linejoin="round"/>
<path d="M12.515 11.4179L12.7892 6.76179L14.0077 3.44495H8.56152L9.78 6.76179L10.0542 11.4179L10.1591 12.886L10.1671 16.5009H12.4022L12.4101 12.886L12.515 11.4179Z" fill="#F5841F" stroke="#F5841F" stroke-width="0.0794834" stroke-linecap="round" stroke-linejoin="round"/>
</svg>
