<svg width="22" height="20" viewBox="0 0 22 20" fill="none" xmlns="http://www.w3.org/2000/svg">
<path d="M20.0114 1L12.1963 6.79797L13.6477 3.37731L20.0114 1Z" fill="#595959" stroke="#232325" stroke-width="0.0958333" stroke-linecap="round" stroke-linejoin="round"/>
<path d="M1.98828 1L9.73231 6.85285L8.35199 3.37731L1.98828 1Z" fill="#595959" stroke="#595959" stroke-width="0.0958333" stroke-linecap="round" stroke-linejoin="round"/>
<path d="M17.202 14.4408L15.123 17.6265L19.5716 18.8499L20.843 14.5111L17.202 14.4408Z" fill="#595959" stroke="#595959" stroke-width="0.0958333" stroke-linecap="round" stroke-linejoin="round"/>
<path d="M1.16504 14.5111L2.42866 18.8499L6.87723 17.6265L4.80597 14.4408L1.16504 14.5111Z" fill="#595959" stroke="#595959" stroke-width="0.0958333" stroke-linecap="round" stroke-linejoin="round"/>
<path d="M6.63322 9.05781L5.39355 10.9335L9.80348 11.1298L9.65432 6.38218L6.63322 9.05781Z" fill="#595959" stroke="#595959" stroke-width="0.0958333" stroke-linecap="round" stroke-linejoin="round"/>
<path d="M15.3665 9.0578L12.2983 6.32729L12.1963 11.1298L16.6062 10.9335L15.3665 9.0578Z" fill="#595959" stroke="#595959" stroke-width="0.0958333" stroke-linecap="round" stroke-linejoin="round"/>
<path d="M6.87695 17.6265L9.53713 16.3312L7.24561 14.5428L6.87695 17.6265Z" fill="#595959" stroke="#595959" stroke-width="0.0958333" stroke-linecap="round" stroke-linejoin="round"/>
<path d="M12.4629 16.3312L15.1231 17.6265L14.7544 14.5428L12.4629 16.3312Z" fill="#595959" stroke="#595959" stroke-width="0.0958333" stroke-linecap="round" stroke-linejoin="round"/>
<path d="M15.1231 17.6265L12.4629 16.3312L12.6747 18.0655L12.6515 18.795L15.1231 17.6265Z" fill="#595959" stroke="#595959" stroke-width="0.0958333" stroke-linecap="round" stroke-linejoin="round"/>
<path d="M6.87695 17.6265L9.34855 18.795L9.33309 18.0655L9.53713 16.3312L6.87695 17.6265Z" fill="#595959" stroke="#595959" stroke-width="0.0958333" stroke-linecap="round" stroke-linejoin="round"/>
<path d="M9.39531 13.3966L7.18262 12.7459L8.74379 12.0318L9.39531 13.3966Z" fill="#232325" stroke="#232325" stroke-width="0.0958333" stroke-linecap="round" stroke-linejoin="round"/>
<path d="M12.6045 13.3966L13.256 12.0318L14.8249 12.7459L12.6045 13.3966Z" fill="#232325" stroke="#232325" stroke-width="0.0958333" stroke-linecap="round" stroke-linejoin="round"/>
<path d="M6.87692 17.6265L7.26103 14.4408L4.80566 14.5111L6.87692 17.6265Z" fill="#595959" stroke="#595959" stroke-width="0.0958333" stroke-linecap="round" stroke-linejoin="round"/>
<path d="M14.7393 14.4408L15.1234 17.6265L17.2024 14.5111L14.7393 14.4408Z" fill="#595959" stroke="#595959" stroke-width="0.0958333" stroke-linecap="round" stroke-linejoin="round"/>
<path d="M16.6062 10.9335L12.1963 11.1298L12.6044 13.3966L13.2559 12.0318L14.8248 12.7459L16.6062 10.9335Z" fill="#595959" stroke="#595959" stroke-width="0.0958333" stroke-linecap="round" stroke-linejoin="round"/>
<path d="M7.18272 12.7459L8.74389 12.0318L9.39541 13.3966L9.80348 11.1298L5.39355 10.9335L7.18272 12.7459Z" fill="#595959" stroke="#595959" stroke-width="0.0958333" stroke-linecap="round" stroke-linejoin="round"/>
<path d="M5.39355 10.9335L7.24532 14.5428L7.18272 12.7459L5.39355 10.9335Z" fill="#595959" stroke="#595959" stroke-width="0.0958333" stroke-linecap="round" stroke-linejoin="round"/>
<path d="M14.8252 12.7459L14.7549 14.5428L16.6066 10.9335L14.8252 12.7459Z" fill="#595959" stroke="#595959" stroke-width="0.0958333" stroke-linecap="round" stroke-linejoin="round"/>
<path d="M9.80358 11.1298L9.39551 13.3966L9.91332 16.0723L10.0231 12.5496L9.80358 11.1298Z" fill="#595959" stroke="#595959" stroke-width="0.0958333" stroke-linecap="round" stroke-linejoin="round"/>
<path d="M12.1961 11.1298L11.9844 12.5418L12.0864 16.0723L12.6042 13.3966L12.1961 11.1298Z" fill="#595959" stroke="#595959" stroke-width="0.0958333" stroke-linecap="round" stroke-linejoin="round"/>
<path d="M12.6047 13.3966L12.0869 16.0723L12.4633 16.3312L14.7548 14.5428L14.8251 12.7459L12.6047 13.3966Z" fill="#595959" stroke="#595959" stroke-width="0.0958333" stroke-linecap="round" stroke-linejoin="round"/>
<path d="M7.18262 12.7459L7.24522 14.5428L9.53674 16.3312L9.91312 16.0723L9.39531 13.3966L7.18262 12.7459Z" fill="#595959" stroke="#595959" stroke-width="0.0958333" stroke-linecap="round" stroke-linejoin="round"/>
<path d="M12.6517 18.795L12.6749 18.0655L12.4794 17.8931H9.5209L9.33309 18.0655L9.34855 18.795L6.87695 17.6265L7.74024 18.3321L9.49771 19.5486H12.5026L14.2601 18.3321L15.1233 17.6265L12.6517 18.795Z" fill="#595959" stroke="#595959" stroke-width="0.0958333" stroke-linecap="round" stroke-linejoin="round"/>
<path d="M12.4631 16.3312L12.0867 16.0723H9.91342L9.53704 16.3312L9.33301 18.0655L9.52081 17.8931H12.4793L12.6748 18.0655L12.4631 16.3312Z" fill="#232325" stroke="#232325" stroke-width="0.0958333" stroke-linecap="round" stroke-linejoin="round"/>
<path d="M20.3406 7.17513L20.9999 3.97395L20.0114 1L12.4629 6.60244L15.3665 9.05781L19.4696 10.2588L20.3723 9.19924L19.9797 8.91715L20.6073 8.34369L20.1289 7.96731L20.7564 7.48891L20.3406 7.17513Z" fill="#232325" stroke="#595959" stroke-width="0.4" stroke-linecap="round" stroke-linejoin="round"/>
<path d="M1 3.97395L1.66698 7.17513L1.24345 7.48891L1.87101 7.96731L1.39261 8.34369L2.02017 8.91715L1.62756 9.19924L2.53026 10.2588L6.63336 9.05781L9.53698 6.60244L1.98849 1L1 3.97395Z" fill="#232325" stroke="#595959" stroke-width="0.4" stroke-linecap="round" stroke-linejoin="round"/>
<path d="M19.4701 10.2588L15.367 9.05781L16.6066 10.9335L14.7549 14.5428L17.2025 14.5111H20.8435L19.4701 10.2588Z" fill="#595959" stroke="#595959" stroke-width="0.0958333" stroke-linecap="round" stroke-linejoin="round"/>
<path d="M6.63378 9.05781L2.53068 10.2588L1.16504 14.5111H4.80597L7.24588 14.5428L5.39411 10.9335L6.63378 9.05781Z" fill="#595959" stroke="#595959" stroke-width="0.0958333" stroke-linecap="round" stroke-linejoin="round"/>
<path d="M12.1967 11.1298L12.4634 6.60245L13.6482 3.37732H8.35254L9.53733 6.60245L9.80396 11.1298L9.90598 12.5573L9.91371 16.0723H12.087L12.0947 12.5573L12.1967 11.1298Z" fill="#595959" stroke="#595959" stroke-width="0.0958333" stroke-linecap="round" stroke-linejoin="round"/>
</svg>
