<svg width="16" height="15" viewBox="0 0 16 15" fill="none" xmlns="http://www.w3.org/2000/svg">
<path fill-rule="evenodd" clip-rule="evenodd" d="M14.2441 5.49609C15.1797 5.49609 15.9844 6.27588 15.9844 7.24805C15.9844 7.73975 15.7832 8.18115 15.4648 8.49951C15.3164 8.64746 15.1426 8.76855 14.9531 8.85596C14.9883 9.04785 15 9.21582 15 9.38428C15 12.084 11.8574 14.2681 7.98047 14.2681C4.12891 14.2681 0.996094 12.0479 0.996094 9.38428C0.996094 9.19189 1.00781 9.04785 1.0332 8.85596C0.431641 8.58008 0 7.97998 0 7.24805C0 6.2998 0.78125 5.52002 1.75195 5.52002C2.2207 5.52002 2.65234 5.7002 2.96484 6C4.1875 5.12402 5.86914 4.57227 7.72852 4.51221L8.61719 0.335938C8.62891 0.251953 8.66406 0.180176 8.73633 0.131836C8.79688 0.0839844 8.88086 0.0478516 8.96484 0.0839844L11.8809 0.708008C12.0723 0.288086 12.5039 0 12.9961 0C13.6797 0 14.2441 0.563965 14.2441 1.24805C14.2441 1.93213 13.6797 2.49609 12.9961 2.49609C12.6875 2.49609 12.4062 2.38525 12.1875 2.20215C11.9297 1.98486 11.7617 1.66602 11.748 1.30811L9.14453 0.744141L8.33984 4.5C10.1758 4.57227 11.8203 5.12402 13.0195 5.98828C13.332 5.68799 13.7637 5.49609 14.2441 5.49609ZM10.9805 11.8081C11.0762 11.6763 11.0762 11.4482 10.9805 11.3398C10.9238 11.2925 10.8574 11.2637 10.7891 11.2539C10.6855 11.2393 10.5801 11.2676 10.5 11.3398C9.97266 11.8921 8.80859 12.0479 7.98047 12.0479C7.52344 12.0479 6.95898 11.9976 6.45508 11.853C6.07227 11.7432 5.72266 11.5786 5.48438 11.3398C5.39648 11.2524 5.26367 11.229 5.14844 11.2695C5.10547 11.2842 5.06445 11.3076 5.0293 11.3398C4.9082 11.4482 4.9082 11.6763 5.0293 11.8081C5.88086 12.6479 7.51172 12.7202 7.98047 12.7202C8.47266 12.7202 10.1035 12.6479 10.9805 11.8081ZM5.23242 7.24805C5.91602 7.24805 6.48047 7.81201 6.48047 8.49609C6.48047 8.84521 6.33398 9.16309 6.09961 9.39062C5.87305 9.60889 5.56641 9.74414 5.23242 9.74414C4.95508 9.74902 4.69531 9.65674 4.48633 9.49951C4.18164 9.27002 3.98438 8.90186 3.98438 8.49609C3.98438 7.81201 4.54883 7.24805 5.23242 7.24805ZM9.875 7.604C10.0996 7.38672 10.4004 7.24805 10.7285 7.24805C11.4121 7.24805 11.9766 7.84814 11.9766 8.50781C11.9766 9.18018 11.4121 9.75586 10.7285 9.75586C10.0449 9.75586 9.48047 9.16797 9.48047 8.50781C9.48047 8.16504 9.63281 7.83887 9.875 7.604Z" fill="#14161E"/>
</svg>
