<svg width="22" height="17" viewBox="0 0 22 17" fill="none" xmlns="http://www.w3.org/2000/svg">
<path d="M6.90585 12.2901C6.01211 12.2759 5.20869 11.9009 4.62816 11.308C4.78304 11.2803 4.93636 11.2455 5.08762 11.2035L5.01513 9.25923C3.99711 9.05666 3.14605 8.37574 2.70498 7.4593C2.90826 7.48577 3.11678 7.5 3.32998 7.5H6.71843L3.87293 5.66024C2.99708 5.09396 2.41998 4.0897 2.41998 2.94C2.41998 2.86324 2.42262 2.78705 2.42782 2.71154C4.63517 4.78191 7.56406 6.10564 10.7895 6.26872L12.1057 6.33528L11.8154 5.04974C11.7609 4.80809 11.73 4.55197 11.73 4.29C11.73 2.46924 13.2053 1 15 1C15.9845 1 16.8259 1.38596 17.4235 2.0365L17.8069 2.45383L18.3619 2.3394C18.4546 2.3203 18.5469 2.29994 18.6388 2.27834L18.9735 3.24104C18.8964 3.30111 18.8182 3.35954 18.7387 3.41627L18.2925 3.73498L18.3214 4.28256C18.3298 4.44217 18.33 4.59635 18.33 4.79C18.33 10.0293 14.3335 16 7.11998 16C6.21004 16 5.325 15.8908 4.47724 15.6848C5.59116 15.3335 6.61668 14.7844 7.51205 14.073L9.70014 12.3345L6.90585 12.2901Z" stroke="#09E583" stroke-width="2"/>
</svg>
