<svg width="26" height="26" viewBox="0 0 26 26" fill="none" xmlns="http://www.w3.org/2000/svg">
<mask id="path-1-inside-1_955_24549" fill="white">
<path d="M13 25.5C10.4583 25.5 8.13021 24.75 6.01562 23.25C3.90104 21.75 2.34375 19.8646 1.34375 17.5938V21.6562C1.34375 21.8021 1.29688 21.9167 1.20312 22C1.10938 22.0833 1 22.125 0.875 22.125C0.729167 22.125 0.609375 22.0833 0.515625 22C0.421875 21.9167 0.375 21.8021 0.375 21.6562V16.75C0.375 16.5 0.458333 16.2917 0.625 16.125C0.791667 15.9583 1 15.875 1.25 15.875H6.15625C6.30208 15.875 6.41667 15.9219 6.5 16.0156C6.58333 16.1094 6.625 16.2292 6.625 16.375C6.625 16.5208 6.58333 16.6354 6.5 16.7188C6.41667 16.8021 6.30208 16.8438 6.15625 16.8438H2.09375C2.92708 19.0521 4.36979 20.8854 6.42188 22.3438C8.47396 23.8021 10.6667 24.5312 13 24.5312C15.9792 24.5312 18.5625 23.5469 20.75 21.5781C22.9375 19.6094 24.1771 17.1146 24.4688 14.0938C24.4896 13.9688 24.5469 13.8594 24.6406 13.7656C24.7344 13.6719 24.8542 13.625 25 13.625C25.1458 13.625 25.2604 13.6719 25.3438 13.7656C25.4271 13.8594 25.4583 13.9688 25.4375 14.0938C25.2917 15.6979 24.8698 17.1927 24.1719 18.5781C23.474 19.9635 22.5677 21.1719 21.4531 22.2031C20.3385 23.2344 19.0625 24.0417 17.625 24.625C16.1875 25.2083 14.6458 25.5 13 25.5ZM1 12.375C0.854167 12.375 0.739583 12.3281 0.65625 12.2344C0.572917 12.1406 0.541667 12.0312 0.5625 11.9062C0.708333 10.2188 1.14063 8.67708 1.85938 7.28125C2.57813 5.88542 3.5 4.6875 4.625 3.6875C5.75 2.6875 7.03125 1.90625 8.46875 1.34375C9.90625 0.78125 11.4167 0.5 13 0.5C15.5 0.5 17.8281 1.25 19.9844 2.75C22.1406 4.25 23.6979 6.16667 24.6563 8.5V4.34375C24.6563 4.19792 24.7031 4.08333 24.7969 4C24.8906 3.91667 25 3.875 25.125 3.875C25.2708 3.875 25.3906 3.91667 25.4844 4C25.5781 4.08333 25.625 4.19792 25.625 4.34375V9.25C25.625 9.5 25.5417 9.70833 25.375 9.875C25.2083 10.0417 25 10.125 24.75 10.125H19.8438C19.6979 10.125 19.5833 10.0781 19.5 9.98438C19.4167 9.89062 19.375 9.77083 19.375 9.625C19.375 9.47917 19.4167 9.36458 19.5 9.28125C19.5833 9.19792 19.6979 9.15625 19.8438 9.15625H23.9062C23.1146 7.03125 21.6979 5.21875 19.6563 3.71875C17.6146 2.21875 15.3958 1.46875 13 1.46875C10.125 1.46875 7.56771 2.42708 5.32812 4.34375C3.08854 6.26042 1.82292 8.78125 1.53125 11.9062C1.51042 12.0312 1.45312 12.1406 1.35938 12.2344C1.26562 12.3281 1.14583 12.375 1 12.375ZM12.9688 21.375C12.8438 21.375 12.7292 21.3281 12.625 21.2344C12.5208 21.1406 12.4688 21.0208 12.4688 20.875V19.8125C11.6979 19.625 11.0313 19.3438 10.4688 18.9688C9.90625 18.5938 9.42708 18.0625 9.03125 17.375C8.92708 17.2292 8.90104 17.099 8.95312 16.9844C9.00521 16.8698 9.10417 16.7708 9.25 16.6875C9.35417 16.6667 9.46354 16.6719 9.57812 16.7031C9.69271 16.7344 9.78125 16.8021 9.84375 16.9062C10.1979 17.5521 10.6667 18.0573 11.25 18.4219C11.8333 18.7865 12.4792 18.9688 13.1875 18.9688C13.9792 18.9688 14.7135 18.7396 15.3906 18.2812C16.0677 17.8229 16.4062 17.1562 16.4062 16.2812C16.4062 15.5521 16.1823 14.9792 15.7344 14.5625C15.2865 14.1458 14.3542 13.6771 12.9375 13.1562C11.5 12.6146 10.5104 12.0781 9.96875 11.5469C9.42708 11.0156 9.15625 10.2812 9.15625 9.34375C9.15625 8.55208 9.44271 7.85417 10.0156 7.25C10.5885 6.64583 11.4271 6.27083 12.5312 6.125V5.15625C12.5312 5.01042 12.5833 4.88542 12.6875 4.78125C12.7917 4.67708 12.9062 4.625 13.0312 4.625C13.1562 4.625 13.2708 4.67708 13.375 4.78125C13.4792 4.88542 13.5313 5.01042 13.5313 5.15625V6.125C14.1146 6.16667 14.6563 6.32812 15.1563 6.60938C15.6563 6.89062 16.0833 7.27083 16.4375 7.75C16.5208 7.85417 16.5417 7.96875 16.5 8.09375C16.4583 8.21875 16.375 8.3125 16.25 8.375C16.1458 8.41667 16.0312 8.41667 15.9062 8.375C15.7812 8.33333 15.6875 8.28125 15.625 8.21875C15.3125 7.82292 14.9479 7.51562 14.5313 7.29688C14.1146 7.07812 13.625 6.96875 13.0625 6.96875C12.2083 6.96875 11.5104 7.19271 10.9688 7.64062C10.4271 8.08854 10.1562 8.65625 10.1562 9.34375C10.1562 10.0521 10.3542 10.6042 10.75 11C11.1458 11.3958 12.0417 11.8333 13.4375 12.3125C14.9167 12.8333 15.9427 13.3854 16.5156 13.9688C17.0885 14.5521 17.375 15.3229 17.375 16.2812C17.375 17.4062 16.974 18.276 16.1719 18.8906C15.3698 19.5052 14.4688 19.8333 13.4688 19.875V20.8438C13.4688 20.9896 13.4167 21.1146 13.3125 21.2188C13.2083 21.3229 13.0938 21.375 12.9688 21.375Z"/>
</mask>
<path d="M13 25.5C10.4583 25.5 8.13021 24.75 6.01562 23.25C3.90104 21.75 2.34375 19.8646 1.34375 17.5938V21.6562C1.34375 21.8021 1.29688 21.9167 1.20312 22C1.10938 22.0833 1 22.125 0.875 22.125C0.729167 22.125 0.609375 22.0833 0.515625 22C0.421875 21.9167 0.375 21.8021 0.375 21.6562V16.75C0.375 16.5 0.458333 16.2917 0.625 16.125C0.791667 15.9583 1 15.875 1.25 15.875H6.15625C6.30208 15.875 6.41667 15.9219 6.5 16.0156C6.58333 16.1094 6.625 16.2292 6.625 16.375C6.625 16.5208 6.58333 16.6354 6.5 16.7188C6.41667 16.8021 6.30208 16.8438 6.15625 16.8438H2.09375C2.92708 19.0521 4.36979 20.8854 6.42188 22.3438C8.47396 23.8021 10.6667 24.5312 13 24.5312C15.9792 24.5312 18.5625 23.5469 20.75 21.5781C22.9375 19.6094 24.1771 17.1146 24.4688 14.0938C24.4896 13.9688 24.5469 13.8594 24.6406 13.7656C24.7344 13.6719 24.8542 13.625 25 13.625C25.1458 13.625 25.2604 13.6719 25.3438 13.7656C25.4271 13.8594 25.4583 13.9688 25.4375 14.0938C25.2917 15.6979 24.8698 17.1927 24.1719 18.5781C23.474 19.9635 22.5677 21.1719 21.4531 22.2031C20.3385 23.2344 19.0625 24.0417 17.625 24.625C16.1875 25.2083 14.6458 25.5 13 25.5ZM1 12.375C0.854167 12.375 0.739583 12.3281 0.65625 12.2344C0.572917 12.1406 0.541667 12.0312 0.5625 11.9062C0.708333 10.2188 1.14063 8.67708 1.85938 7.28125C2.57813 5.88542 3.5 4.6875 4.625 3.6875C5.75 2.6875 7.03125 1.90625 8.46875 1.34375C9.90625 0.78125 11.4167 0.5 13 0.5C15.5 0.5 17.8281 1.25 19.9844 2.75C22.1406 4.25 23.6979 6.16667 24.6563 8.5V4.34375C24.6563 4.19792 24.7031 4.08333 24.7969 4C24.8906 3.91667 25 3.875 25.125 3.875C25.2708 3.875 25.3906 3.91667 25.4844 4C25.5781 4.08333 25.625 4.19792 25.625 4.34375V9.25C25.625 9.5 25.5417 9.70833 25.375 9.875C25.2083 10.0417 25 10.125 24.75 10.125H19.8438C19.6979 10.125 19.5833 10.0781 19.5 9.98438C19.4167 9.89062 19.375 9.77083 19.375 9.625C19.375 9.47917 19.4167 9.36458 19.5 9.28125C19.5833 9.19792 19.6979 9.15625 19.8438 9.15625H23.9062C23.1146 7.03125 21.6979 5.21875 19.6563 3.71875C17.6146 2.21875 15.3958 1.46875 13 1.46875C10.125 1.46875 7.56771 2.42708 5.32812 4.34375C3.08854 6.26042 1.82292 8.78125 1.53125 11.9062C1.51042 12.0312 1.45312 12.1406 1.35938 12.2344C1.26562 12.3281 1.14583 12.375 1 12.375ZM12.9688 21.375C12.8438 21.375 12.7292 21.3281 12.625 21.2344C12.5208 21.1406 12.4688 21.0208 12.4688 20.875V19.8125C11.6979 19.625 11.0313 19.3438 10.4688 18.9688C9.90625 18.5938 9.42708 18.0625 9.03125 17.375C8.92708 17.2292 8.90104 17.099 8.95312 16.9844C9.00521 16.8698 9.10417 16.7708 9.25 16.6875C9.35417 16.6667 9.46354 16.6719 9.57812 16.7031C9.69271 16.7344 9.78125 16.8021 9.84375 16.9062C10.1979 17.5521 10.6667 18.0573 11.25 18.4219C11.8333 18.7865 12.4792 18.9688 13.1875 18.9688C13.9792 18.9688 14.7135 18.7396 15.3906 18.2812C16.0677 17.8229 16.4062 17.1562 16.4062 16.2812C16.4062 15.5521 16.1823 14.9792 15.7344 14.5625C15.2865 14.1458 14.3542 13.6771 12.9375 13.1562C11.5 12.6146 10.5104 12.0781 9.96875 11.5469C9.42708 11.0156 9.15625 10.2812 9.15625 9.34375C9.15625 8.55208 9.44271 7.85417 10.0156 7.25C10.5885 6.64583 11.4271 6.27083 12.5312 6.125V5.15625C12.5312 5.01042 12.5833 4.88542 12.6875 4.78125C12.7917 4.67708 12.9062 4.625 13.0312 4.625C13.1562 4.625 13.2708 4.67708 13.375 4.78125C13.4792 4.88542 13.5313 5.01042 13.5313 5.15625V6.125C14.1146 6.16667 14.6563 6.32812 15.1563 6.60938C15.6563 6.89062 16.0833 7.27083 16.4375 7.75C16.5208 7.85417 16.5417 7.96875 16.5 8.09375C16.4583 8.21875 16.375 8.3125 16.25 8.375C16.1458 8.41667 16.0312 8.41667 15.9062 8.375C15.7812 8.33333 15.6875 8.28125 15.625 8.21875C15.3125 7.82292 14.9479 7.51562 14.5313 7.29688C14.1146 7.07812 13.625 6.96875 13.0625 6.96875C12.2083 6.96875 11.5104 7.19271 10.9688 7.64062C10.4271 8.08854 10.1562 8.65625 10.1562 9.34375C10.1562 10.0521 10.3542 10.6042 10.75 11C11.1458 11.3958 12.0417 11.8333 13.4375 12.3125C14.9167 12.8333 15.9427 13.3854 16.5156 13.9688C17.0885 14.5521 17.375 15.3229 17.375 16.2812C17.375 17.4062 16.974 18.276 16.1719 18.8906C15.3698 19.5052 14.4688 19.8333 13.4688 19.875V20.8438C13.4688 20.9896 13.4167 21.1146 13.3125 21.2188C13.2083 21.3229 13.0938 21.375 12.9688 21.375Z" fill="white" stroke="white" stroke-width="2" mask="url(#path-1-inside-1_955_24549)"/>
</svg>
