<svg width="16" height="13" viewBox="0 0 16 13" fill="none" xmlns="http://www.w3.org/2000/svg">
<path d="M0.976553 5.7786C2.5111 4.9333 4.22406 4.2278 5.82457 3.51877C8.5781 2.35736 11.3425 1.21608 14.1348 0.153558C14.6781 -0.0274723 15.6543 -0.204493 15.75 0.600597C15.6976 1.74024 15.482 2.87321 15.3341 4.0062C14.9587 6.4977 14.5249 8.9807 14.1018 11.464C13.956 12.2911 12.9198 12.7193 12.2568 12.19C10.6634 11.1137 9.0577 10.0479 7.4847 8.9466C6.9694 8.423 7.4472 7.6711 7.9074 7.2972C9.2198 6.0039 10.6116 4.905 11.8554 3.54486C12.1909 2.7347 11.1996 3.41748 10.8726 3.6267C9.0759 4.8648 7.3233 6.1785 5.42903 7.2666C4.46146 7.7992 3.33374 7.3441 2.36661 7.0469C1.49948 6.6878 0.228773 6.3261 0.976463 5.7787L0.976553 5.7786Z" fill="#14161E"/>
</svg>
