<svg width="24" height="24" viewBox="0 0 24 24" fill="none" xmlns="http://www.w3.org/2000/svg">
<path d="M6 11H9.18C9.6 9.84 10.7 9 12 9C13.3 9 14.4 9.84 14.82 11H18C18.33 11 20 10.9 20 9V8C20 6.17 18.46 6 18 6H7.82C7.4 7.16 6.3 8 5 8C4.20435 8 3.44129 7.68393 2.87868 7.12132C2.31607 6.55871 2 5.79565 2 5C2 4.20435 2.31607 3.44129 2.87868 2.87868C3.44129 2.31607 4.20435 2 5 2C6.3 2 7.4 2.84 7.82 4H18C19.61 4 22 5.06 22 8V9C22 11.94 19.61 13 18 13H14.82C14.4 14.16 13.3 15 12 15C10.7 15 9.6 14.16 9.18 13H6C5.67 13 4 13.1 4 15V16C4 17.83 5.54 18 6 18H16.18C16.6 16.84 17.7 16 19 16C19.7956 16 20.5587 16.3161 21.1213 16.8787C21.6839 17.4413 22 18.2044 22 19C22 19.7956 21.6839 20.5587 21.1213 21.1213C20.5587 21.6839 19.7956 22 19 22C17.7 22 16.6 21.16 16.18 20H6C4.39 20 2 18.93 2 16V15C2 12.07 4.39 11 6 11ZM5 4C4.73478 4 4.48043 4.10536 4.29289 4.29289C4.10536 4.48043 4 4.73478 4 5C4 5.26522 4.10536 5.51957 4.29289 5.70711C4.48043 5.89464 4.73478 6 5 6C5.26522 6 5.51957 5.89464 5.70711 5.70711C5.89464 5.51957 6 5.26522 6 5C6 4.73478 5.89464 4.48043 5.70711 4.29289C5.51957 4.10536 5.26522 4 5 4ZM19 20C19.2652 20 19.5196 19.8946 19.7071 19.7071C19.8946 19.5196 20 19.2652 20 19C20 18.7348 19.8946 18.4804 19.7071 18.2929C19.5196 18.1054 19.2652 18 19 18C18.7348 18 18.4804 18.1054 18.2929 18.2929C18.1054 18.4804 18 18.7348 18 19C18 19.2652 18.1054 19.5196 18.2929 19.7071C18.4804 19.8946 18.7348 20 19 20Z" fill="#343A3F"/>
<circle cx="5" cy="5" r="2" fill="#00FFA4"/>
<circle cx="19" cy="19" r="2" fill="#00FFA4"/>
<circle cx="12" cy="12" r="2" fill="#DDE1E6"/>
</svg>
