<svg width="16" height="13" viewBox="0 0 16 13" fill="none" xmlns="http://www.w3.org/2000/svg">
<path d="M15.25 2.21295C14.6863 2.45752 14.0901 2.6192 13.48 2.69295C14.1236 2.30844 14.606 1.70354 14.8375 0.990447C14.2327 1.3505 13.5706 1.60417 12.88 1.74045C12.4184 1.23988 11.8037 0.906667 11.1324 0.793087C10.461 0.679507 9.7709 0.791968 9.1703 1.11284C8.5698 1.43372 8.0927 1.94485 7.8139 2.56608C7.5352 3.18731 7.4705 3.88349 7.63 4.5454C6.4071 4.4836 5.2108 4.1652 4.11899 3.61085C3.02715 3.05653 2.06413 2.27872 1.2925 1.32795C1.02185 1.80058 0.87964 2.33582 0.88 2.88045C0.87904 3.38624 1.00316 3.88441 1.24132 4.3306C1.47947 4.7768 1.82426 5.1572 2.245 5.438C1.75598 5.4246 1.27741 5.2934 0.85 5.0554V5.093C0.85367 5.8016 1.102 6.4873 1.55299 7.0339C2.00398 7.5806 2.62994 7.9547 3.325 8.093C3.05744 8.1744 2.77966 8.2173 2.5 8.2205C2.30642 8.2182 2.11332 8.2006 1.9225 8.168C2.12043 8.7776 2.50347 9.3103 3.01831 9.6921C3.53315 10.0738 4.15418 10.2856 4.795 10.298C3.7129 11.1494 2.37691 11.6141 1 11.618C0.7493 11.6188 0.4988 11.6037 0.25 11.573C1.65582 12.4806 3.29411 12.9625 4.9675 12.9604C6.1223 12.9724 7.2679 12.7542 8.3373 12.3185C9.4068 11.8828 10.3788 11.2384 11.1964 10.4228C12.014 9.6073 12.661 8.637 13.0994 7.5686C13.5379 6.5003 13.759 5.3552 13.75 4.2004C13.75 4.0729 13.75 3.93795 13.75 3.80295C14.3385 3.36406 14.8461 2.82602 15.25 2.21295Z" fill="#14161E"/>
</svg>
