<svg width="14" height="12" viewBox="0 0 14 12" fill="none" xmlns="http://www.w3.org/2000/svg">
<path d="M4.27126 8.85943C3.67543 8.84998 3.13981 8.59993 2.7528 8.20468C2.85605 8.18623 2.95826 8.16304 3.05911 8.13503L3.01078 6.83883C2.3321 6.70379 1.76473 6.24984 1.47068 5.63888C1.6062 5.65653 1.74521 5.66602 1.88734 5.66602H4.14631L2.24931 4.43951C1.66541 4.06199 1.28068 3.39248 1.28068 2.62602C1.28068 2.57484 1.28244 2.52405 1.2859 2.47371C2.75747 3.85396 4.71006 4.73644 6.86035 4.84517L7.73783 4.88953L7.5443 4.03251C7.50793 3.87141 7.48734 3.70066 7.48734 3.52602C7.48734 2.31218 8.47089 1.33268 9.66734 1.33268C10.3237 1.33268 10.8847 1.58999 11.283 2.02368L11.5386 2.30191L11.9086 2.22561C11.9704 2.21288 12.0319 2.19931 12.0932 2.18491L12.3164 2.82671C12.265 2.86676 12.2128 2.90571 12.1599 2.94353L11.8624 3.156L11.8816 3.52106C11.8872 3.62746 11.8873 3.73025 11.8873 3.85935C11.8873 7.35219 9.22304 11.3327 4.41401 11.3327C3.80739 11.3327 3.21736 11.2598 2.65219 11.1225C3.3948 10.8884 4.07848 10.5222 4.67539 10.048L6.13412 8.889L4.27126 8.85943Z" stroke="#03ffa4" stroke-width="1.33333"/>
</svg>
