<svg width="16" height="16" viewBox="0 0 16 16" fill="none" xmlns="http://www.w3.org/2000/svg">
<path d="M2.28641 5.14286V13.1429H13.1436L13.1372 11.4267H14.2864L14.2928 6.85714H13.1436V5.14286H2.28641ZM2.28641 4H13.1436C13.7747 4 14.2864 4.51167 14.2864 5.14286V6.84721V10.2857V13.1429C14.2864 13.774 13.7747 14.2857 13.1436 14.2857H2.28641C1.65523 14.2857 1.14355 13.774 1.14355 13.1429L1.14355 5.14286C1.14355 4.51167 1.65523 4 2.28641 4Z" fill="white" fill-opacity="0.4"/>
<path d="M10.8585 9.71476C11.1741 9.71476 11.43 9.45892 11.43 9.14333C11.43 8.82774 11.1741 8.5719 10.8585 8.5719C10.5429 8.5719 10.2871 8.82774 10.2871 9.14333C10.2871 9.45892 10.5429 9.71476 10.8585 9.71476Z" fill="white" fill-opacity="0.4"/>
<path d="M5.32704 4.00057L10.2838 2.34861V4.00057H11.4267V2.34861C11.4267 2.2258 11.4069 2.10378 11.3681 1.98727C11.1685 1.38847 10.5213 1.06482 9.92249 1.26438L1.7124 4.00057H5.32704Z" fill="white" fill-opacity="0.4"/>
<path d="M9.71317 7.99912V10.2848H14.2846V7.99912H9.71317ZM9.71317 6.85626H14.2846C14.9158 6.85626 15.4275 7.36794 15.4275 7.99912V10.2848C15.4275 10.916 14.9158 11.4277 14.2846 11.4277H9.71317C9.08199 11.4277 8.57031 10.916 8.57031 10.2848V7.99912C8.57031 7.36794 9.08199 6.85626 9.71317 6.85626Z" fill="white" fill-opacity="0.4"/>
</svg>
