<svg width="48" height="48" viewBox="0 0 48 48" fill="none" xmlns="http://www.w3.org/2000/svg">
<path d="M6.85924 15.4286V39.4286H39.4307L39.4115 34.28H42.8592L42.8784 20.5714H39.4307V15.4286H6.85924ZM6.85924 12H39.4307C41.3242 12 42.8592 13.535 42.8592 15.4286V20.5416V30.8571V39.4286C42.8592 41.3221 41.3242 42.8571 39.4307 42.8571H6.85924C4.96569 42.8571 3.43066 41.3221 3.43066 39.4286L3.43066 15.4286C3.43066 13.535 4.96569 12 6.85924 12Z" fill="#2DE370"/>
<path d="M32.5756 29.1439C33.5224 29.1439 34.2899 28.3764 34.2899 27.4296C34.2899 26.4828 33.5224 25.7153 32.5756 25.7153C31.6288 25.7153 30.8613 26.4828 30.8613 27.4296C30.8613 28.3764 31.6288 29.1439 32.5756 29.1439Z" fill="#2DE370"/>
<path d="M15.9816 12.0021L30.852 7.0462V12.0021H34.2806V7.0462C34.2806 6.67776 34.2212 6.31172 34.1047 5.96217C33.506 4.16576 31.5644 3.19482 29.768 3.79351L5.1377 12.0021H15.9816Z" fill="#2DE370"/>
<path d="M29.1405 23.9979V30.8551H42.8548V23.9979H29.1405ZM29.1405 20.5693H42.8548C44.7483 20.5693 46.2833 22.1044 46.2833 23.9979V30.8551C46.2833 32.7486 44.7483 34.2836 42.8548 34.2836H29.1405C27.2469 34.2836 25.7119 32.7486 25.7119 30.8551V23.9979C25.7119 22.1044 27.2469 20.5693 29.1405 20.5693Z" fill="#2DE370"/>
</svg>
