<svg width="15" height="11" viewBox="0 0 15 11" fill="none" xmlns="http://www.w3.org/2000/svg">
<path d="M6 7.5L9.8925 5.25L6 3V7.5ZM14.67 1.6275C14.7675 1.98 14.835 2.4525 14.88 3.0525C14.9325 3.6525 14.955 4.17 14.955 4.62L15 5.25C15 6.8925 14.88 8.1 14.67 8.8725C14.4825 9.5475 14.0475 9.9825 13.3725 10.17C13.02 10.2675 12.375 10.335 11.385 10.38C10.41 10.4325 9.5175 10.455 8.6925 10.455L7.5 10.5C4.3575 10.5 2.4 10.38 1.6275 10.17C0.9525 9.9825 0.5175 9.5475 0.33 8.8725C0.2325 8.52 0.165 8.0475 0.12 7.4475C0.0675001 6.8475 0.045 6.33 0.045 5.88L0 5.25C0 3.6075 0.12 2.4 0.33 1.6275C0.5175 0.9525 0.9525 0.5175 1.6275 0.33C1.98 0.2325 2.625 0.165 3.615 0.12C4.59 0.0674999 5.4825 0.045 6.3075 0.045L7.5 0C10.6425 0 12.6 0.12 13.3725 0.33C14.0475 0.5175 14.4825 0.9525 14.67 1.6275Z" fill="#14161E"/>
</svg>
