<svg width="117" height="127" viewBox="0 0 117 127" fill="none" xmlns="http://www.w3.org/2000/svg">
<path d="M98.75 49.4167C96.8824 49.4167 95.0913 48.6748 93.7707 47.3542C92.4502 46.0336 91.7083 44.2426 91.7083 42.375C91.7083 40.5074 92.4502 38.7164 93.7707 37.3958C95.0913 36.0752 96.8824 35.3333 98.75 35.3333C100.618 35.3333 102.409 36.0752 103.729 37.3958C105.05 38.7164 105.792 40.5074 105.792 42.375C105.792 44.2426 105.05 46.0336 103.729 47.3542C102.409 48.6748 100.618 49.4167 98.75 49.4167ZM56.5 49.4167H14.25V14.2083H56.5V49.4167ZM111.214 29.9112L111.284 29.8408L85.0891 3.64583L77.625 11.11L92.4829 25.9679C85.8637 28.2917 81.1458 34.8404 81.1458 42.375C81.1458 44.6868 81.6011 46.976 82.4858 49.1118C83.3705 51.2477 84.6672 53.1883 86.3019 54.823C89.6034 58.1244 94.081 59.9792 98.75 59.9792C101.285 59.9792 103.609 59.4158 105.792 58.5004V109.271C105.792 111.138 105.05 112.929 103.729 114.25C102.409 115.571 100.618 116.312 98.75 116.312C96.8824 116.312 95.0913 115.571 93.7707 114.25C92.4502 112.929 91.7083 111.138 91.7083 109.271V77.5833C91.7083 69.7671 85.3708 63.5 77.625 63.5H70.5833V14.2083C70.5833 6.39208 64.2458 0.125 56.5 0.125H14.25C6.43371 0.125 0.166626 6.39208 0.166626 14.2083V126.875H70.5833V74.0625H81.1458V109.271C81.1458 113.94 83.0005 118.417 86.3019 121.719C89.6034 125.02 94.081 126.875 98.75 126.875C101.062 126.875 103.351 126.42 105.487 125.535C107.623 124.65 109.563 123.354 111.198 121.719C112.833 120.084 114.129 118.143 115.014 116.008C115.899 113.872 116.354 111.583 116.354 109.271V42.375C116.354 37.5163 114.382 33.08 111.214 29.9112Z" fill="#EB6464" fill-opacity="0.2"/>
</svg>
